# Blender v3.0.1 OBJ File: ''
# www.blender.org
mtllib bridgeAnchor.mtl
o Cone
v 0.000000 1.000000 1.000000
v 0.195090 1.000000 0.980785
v 0.195090 1.000000 -0.980785
v -0.000000 1.000000 -1.000000
v -0.195090 1.000000 -0.980785
v -0.455605 1.000000 -0.923879
v -0.741188 1.000000 -0.831469
v -0.995477 1.000000 -0.707107
v -1.206020 1.000000 -0.555570
v -1.417755 1.000000 -0.382683
v -1.557526 1.000000 -0.195090
v -1.606572 1.000000 0.000000
v -1.557526 1.000000 0.195091
v -1.417755 1.000000 0.382684
v -1.206020 1.000000 0.555570
v -0.995477 1.000000 0.707107
v -0.741188 1.000000 0.831470
v -0.455605 1.000000 0.923880
v -0.195090 1.000000 0.980785
v 0.198876 0.182759 -0.000000
v 0.198876 1.000000 0.000000
vt 0.250000 0.490000
vt 0.250000 0.250000
vt 0.296822 0.485388
vt 0.296822 0.014612
vt 0.250000 0.010000
vt 0.203178 0.014612
vt 0.158156 0.028269
vt 0.116663 0.050447
vt 0.080294 0.080294
vt 0.050447 0.116663
vt 0.028269 0.158156
vt 0.014612 0.203178
vt 0.010000 0.250000
vt 0.014612 0.296822
vt 0.028269 0.341844
vt 0.050447 0.383337
vt 0.080294 0.419706
vt 0.116663 0.449553
vt 0.158156 0.471731
vt 0.750000 0.490000
vt 0.750000 0.250000
vt 0.703178 0.485388
vt 0.203178 0.485388
vt 0.750000 0.010000
vt 0.796822 0.014612
vt 0.510000 0.250000
vt 0.514612 0.203178
vt 0.580294 0.080294
vt 0.616663 0.050447
vt 0.580294 0.419706
vt 0.550447 0.383337
vt 0.658156 0.028269
vt 0.703178 0.014612
vt 0.658156 0.471731
vt 0.616663 0.449553
vt 0.528269 0.341844
vt 0.514612 0.296822
vt 0.528269 0.158156
vt 0.550447 0.116663
vt 0.796822 0.485388
vn 0.0629 -0.7666 0.6390
vn 0.0629 -0.7666 -0.6390
vn -0.0615 -0.7788 -0.6242
vn -0.1317 -0.7869 -0.6028
vn -0.1857 -0.7976 -0.5739
vn -0.2530 -0.8175 -0.5174
vn -0.3158 -0.8412 -0.4388
vn -0.3331 -0.8500 -0.4080
vn -0.3788 -0.8814 -0.2822
vn -0.4102 -0.9062 -0.1031
vn -0.4102 -0.9062 0.1031
vn -0.3788 -0.8814 0.2822
vn -0.3331 -0.8500 0.4080
vn -0.3158 -0.8412 0.4388
vn -0.2530 -0.8175 0.5174
vn -0.1857 -0.7976 0.5739
vn -0.0000 1.0000 0.0000
vn -0.1317 -0.7869 0.6028
vn -0.0615 -0.7788 0.6242
vn 1.0000 0.0046 -0.0000
usemtl None
s off
f 1/1/1 20/2/1 2/3/1
f 3/4/2 20/2/2 4/5/2
f 4/5/3 20/2/3 5/6/3
f 5/6/4 20/2/4 6/7/4
f 6/7/5 20/2/5 7/8/5
f 7/8/6 20/2/6 8/9/6
f 8/9/7 20/2/7 9/10/7
f 9/10/8 20/2/8 10/11/8
f 10/11/9 20/2/9 11/12/9
f 11/12/10 20/2/10 12/13/10
f 12/13/11 20/2/11 13/14/11
f 13/14/12 20/2/12 14/15/12
f 14/15/13 20/2/13 15/16/13
f 15/16/14 20/2/14 16/17/14
f 16/17/15 20/2/15 17/18/15
f 17/18/16 20/2/16 18/19/16
f 1/20/17 21/21/17 19/22/17
f 18/19/18 20/2/18 19/23/18
f 19/23/19 20/2/19 1/1/19
f 4/24/17 21/21/17 3/25/17
f 12/26/17 21/21/17 11/27/17
f 8/28/17 21/21/17 7/29/17
f 16/30/17 21/21/17 15/31/17
f 6/32/17 21/21/17 5/33/17
f 18/34/17 21/21/17 17/35/17
f 14/36/17 21/21/17 13/37/17
f 10/38/17 21/21/17 9/39/17
f 11/27/17 21/21/17 10/38/17
f 13/37/17 21/21/17 12/26/17
f 9/39/17 21/21/17 8/28/17
f 17/35/17 21/21/17 16/30/17
f 15/31/17 21/21/17 14/36/17
f 19/22/17 21/21/17 18/34/17
f 7/29/17 21/21/17 6/32/17
f 2/40/17 21/21/17 1/20/17
f 5/33/17 21/21/17 4/24/17
f 2/3/20 20/2/20 3/4/20
o Cone.001
v -0.634426 0.957847 -0.076856
v -0.619817 0.954474 -0.075379
v -0.605769 0.951231 -0.071005
v -0.592822 0.948242 -0.063903
v -0.581474 0.945622 -0.054345
v -0.572161 0.943472 -0.042699
v -0.565241 0.941874 -0.029411
v -0.560979 0.940890 -0.014994
v -0.559540 0.940558 0.000000
v -0.560979 0.940890 0.014994
v -0.565241 0.941874 0.029411
v -0.572161 0.943472 0.042699
v -0.581474 0.945622 0.054345
v -0.592822 0.948242 0.063903
v -0.605769 0.951231 0.071005
v -0.619817 0.954474 0.075379
v -0.634426 0.957847 0.076856
v -0.649036 0.961220 0.075379
v -0.663084 0.964463 0.071005
v -0.676030 0.967452 0.063903
v -0.687378 0.970072 0.054345
v -0.696691 0.972222 0.042699
v -0.703612 0.973820 0.029411
v -0.707873 0.974804 0.014994
v -0.709312 0.975136 0.000000
v -0.707873 0.974804 -0.014994
v -0.703612 0.973820 -0.029411
v -0.696691 0.972222 -0.042699
v -0.687378 0.970072 -0.054345
v -0.676030 0.967452 -0.063903
v -0.663084 0.964463 -0.071005
v -0.649036 0.961220 -0.075379
v 0.341684 3.751037 0.000000
vt 0.250000 0.490000
vt 0.250000 0.250000
vt 0.296822 0.485388
vt 0.341844 0.471731
vt 0.383337 0.449553
vt 0.419706 0.419706
vt 0.449553 0.383337
vt 0.471731 0.341844
vt 0.485388 0.296822
vt 0.490000 0.250000
vt 0.485388 0.203178
vt 0.471731 0.158156
vt 0.449553 0.116663
vt 0.419706 0.080294
vt 0.383337 0.050447
vt 0.341844 0.028269
vt 0.296822 0.014612
vt 0.250000 0.010000
vt 0.203178 0.014612
vt 0.158156 0.028269
vt 0.116663 0.050447
vt 0.080294 0.080294
vt 0.050447 0.116663
vt 0.028269 0.158156
vt 0.014612 0.203178
vt 0.010000 0.250000
vt 0.014612 0.296822
vt 0.028269 0.341844
vt 0.050447 0.383337
vt 0.080294 0.419706
vt 0.116663 0.449553
vt 0.158156 0.471731
vt 0.750000 0.490000
vt 0.796822 0.485388
vt 0.841844 0.471731
vt 0.883337 0.449553
vt 0.919706 0.419706
vt 0.949553 0.383337
vt 0.971731 0.341844
vt 0.985388 0.296822
vt 0.990000 0.250000
vt 0.985388 0.203178
vt 0.971731 0.158156
vt 0.949553 0.116663
vt 0.919706 0.080294
vt 0.883337 0.050447
vt 0.841844 0.028269
vt 0.796822 0.014612
vt 0.750000 0.010000
vt 0.703178 0.014612
vt 0.658156 0.028269
vt 0.616663 0.050447
vt 0.580294 0.080294
vt 0.550447 0.116663
vt 0.528269 0.158156
vt 0.514612 0.203178
vt 0.510000 0.250000
vt 0.514612 0.296822
vt 0.528269 0.341844
vt 0.550447 0.383337
vt 0.580294 0.419706
vt 0.616663 0.449553
vt 0.658156 0.471731
vt 0.703178 0.485388
vt 0.203178 0.485388
vn 0.0989 -0.0072 -0.9951
vn 0.2815 -0.0710 -0.9569
vn 0.4534 -0.1311 -0.8816
vn 0.6077 -0.1850 -0.7723
vn 0.7387 -0.2308 -0.6333
vn 0.8413 -0.2667 -0.4702
vn 0.9118 -0.2913 -0.2894
vn 0.9477 -0.3039 -0.0977
vn 0.9477 -0.3039 0.0977
vn 0.9118 -0.2913 0.2894
vn 0.8413 -0.2667 0.4702
vn 0.7387 -0.2308 0.6333
vn 0.6077 -0.1850 0.7723
vn 0.4534 -0.1311 0.8816
vn 0.2815 -0.0710 0.9569
vn 0.0989 -0.0072 0.9951
vn -0.0872 0.0578 0.9945
vn -0.2694 0.1215 0.9553
vn -0.4405 0.1812 0.8793
vn -0.5939 0.2348 0.7695
vn -0.7238 0.2802 0.6305
vn -0.8255 0.3157 0.4679
vn -0.8953 0.3400 0.2878
vn -0.9308 0.3524 0.0971
vn -0.9308 0.3524 -0.0971
vn -0.8953 0.3400 -0.2878
vn -0.8255 0.3157 -0.4679
vn -0.7238 0.2802 -0.6305
vn -0.5939 0.2348 -0.7695
vn -0.4405 0.1812 -0.8793
vn -0.2250 -0.9744 -0.0000
vn -0.2694 0.1215 -0.9553
vn -0.0872 0.0578 -0.9945
usemtl None
s off
f 22/41/21 54/42/21 23/43/21
f 23/43/22 54/42/22 24/44/22
f 24/44/23 54/42/23 25/45/23
f 25/45/24 54/42/24 26/46/24
f 26/46/25 54/42/25 27/47/25
f 27/47/26 54/42/26 28/48/26
f 28/48/27 54/42/27 29/49/27
f 29/49/28 54/42/28 30/50/28
f 30/50/29 54/42/29 31/51/29
f 31/51/30 54/42/30 32/52/30
f 32/52/31 54/42/31 33/53/31
f 33/53/32 54/42/32 34/54/32
f 34/54/33 54/42/33 35/55/33
f 35/55/34 54/42/34 36/56/34
f 36/56/35 54/42/35 37/57/35
f 37/57/36 54/42/36 38/58/36
f 38/58/37 54/42/37 39/59/37
f 39/59/38 54/42/38 40/60/38
f 40/60/39 54/42/39 41/61/39
f 41/61/40 54/42/40 42/62/40
f 42/62/41 54/42/41 43/63/41
f 43/63/42 54/42/42 44/64/42
f 44/64/43 54/42/43 45/65/43
f 45/65/44 54/42/44 46/66/44
f 46/66/45 54/42/45 47/67/45
f 47/67/46 54/42/46 48/68/46
f 48/68/47 54/42/47 49/69/47
f 49/69/48 54/42/48 50/70/48
f 50/70/49 54/42/49 51/71/49
f 51/71/50 54/42/50 52/72/50
f 22/73/51 23/74/51 24/75/51 25/76/51 26/77/51 27/78/51 28/79/51 29/80/51 30/81/51 31/82/51 32/83/51 33/84/51 34/85/51 35/86/51 36/87/51 37/88/51 38/89/51 39/90/51 40/91/51 41/92/51 42/93/51 43/94/51 44/95/51 45/96/51 46/97/51 47/98/51 48/99/51 49/100/51 50/101/51 51/102/51 52/103/51 53/104/51
f 52/72/52 54/42/52 53/105/52
f 53/105/53 54/42/53 22/41/53
o Icosphere
v -0.721209 0.863074 -0.000000
v -0.578488 0.849041 0.082796
v -0.693682 0.956433 0.133968
v -0.764876 1.022807 -0.000000
v -0.693682 0.956433 -0.133968
v -0.578488 0.849041 -0.082796
v -0.533949 1.000103 0.133968
v -0.649142 1.107496 0.082796
v -0.649142 1.107496 -0.082796
v -0.533949 1.000103 -0.133968
v -0.462755 0.933729 -0.000000
v -0.506422 1.093462 -0.000000
v -0.723884 0.897724 0.078744
v -0.656175 0.834601 0.048666
v -0.639995 0.889476 0.127411
v -0.572286 0.826353 -0.000000
v -0.656175 0.834601 -0.048666
v -0.765731 0.936738 -0.000000
v -0.749551 0.991613 0.078744
v -0.723884 0.897724 -0.078744
v -0.749551 0.991613 -0.078744
v -0.639995 0.889476 -0.127411
v -0.504259 0.876131 0.048666
v -0.504259 0.876131 -0.048666
v -0.613815 0.978268 0.157490
v -0.546106 0.915144 0.127412
v -0.723372 1.080405 0.048666
v -0.681525 1.041392 0.127412
v -0.681525 1.041392 -0.127412
v -0.723372 1.080405 -0.048666
v -0.546106 0.915144 -0.127412
v -0.613815 0.978268 -0.157490
v -0.478079 0.964923 0.078744
v -0.587636 1.067060 0.127411
v -0.655344 1.130184 -0.000000
v -0.587636 1.067060 -0.127411
v -0.478079 0.964923 -0.078744
v -0.503747 1.058812 0.078744
v -0.461900 1.019798 -0.000000
v -0.571455 1.121935 0.048666
v -0.571455 1.121935 -0.048666
v -0.503747 1.058812 -0.078744
vt 0.181819 0.000000
vt 0.227273 0.078731
vt 0.136365 0.078731
vt 0.272728 0.157461
vt 0.318182 0.078731
vt 0.363637 0.157461
vt 0.909091 0.000000
vt 0.954545 0.078731
vt 0.863636 0.078731
vt 0.727273 0.000000
vt 0.772727 0.078731
vt 0.681818 0.078731
vt 0.545455 0.000000
vt 0.590909 0.078731
vt 0.500000 0.078731
vt 0.318182 0.236191
vt 0.090910 0.157461
vt 0.181819 0.157461
vt 0.136365 0.236191
vt 0.818182 0.157461
vt 0.909091 0.157461
vt 0.863636 0.236191
vt 0.636364 0.157461
vt 0.727273 0.157461
vt 0.681818 0.236191
vt 0.454546 0.157461
vt 0.545455 0.157461
vt 0.500000 0.236191
vt 0.227273 0.236191
vt 0.045455 0.236191
vt 0.772727 0.236191
vt 0.590909 0.236191
vt 0.409092 0.236191
vt 0.181819 0.314921
vt 0.272728 0.314921
vt 0.227273 0.393651
vt 0.000000 0.314921
vt 0.090910 0.314921
vt 0.045455 0.393651
vt 0.727273 0.314921
vt 0.818182 0.314921
vt 0.772727 0.393651
vt 0.545455 0.314921
vt 0.636364 0.314921
vt 0.590909 0.393651
vt 0.363637 0.314921
vt 0.454546 0.314921
vt 0.409092 0.393651
vt 0.500000 0.393651
vt 0.454546 0.472382
vt 0.681818 0.393651
vt 0.636364 0.472382
vt 0.863636 0.393651
vt 0.818182 0.472382
vt 0.909091 0.314921
vt 0.136365 0.393651
vt 0.090910 0.472382
vt 0.318182 0.393651
vt 0.272728 0.472382
vt 0.954545 0.236191
vt 1.000000 0.157461
vt 0.409092 0.078731
vt 0.363637 0.000000
vn -0.5685 -0.7599 0.3151
vn 0.0610 -0.9615 0.2680
vn -0.8394 -0.5074 0.1947
vn -0.8394 -0.5074 -0.1947
vn -0.5685 -0.7599 -0.3151
vn 0.4367 -0.8588 0.2680
vn -0.2072 -0.2585 0.9435
vn -0.8761 0.3650 0.3151
vn -0.6456 0.1502 -0.7488
vn 0.1657 -0.6062 -0.7779
vn 0.5014 -0.6392 0.5831
vn -0.3099 0.1172 0.9435
vn -0.8113 0.5846 0.0000
vn -0.3099 0.1172 -0.9435
vn 0.5014 -0.6392 -0.5831
vn 0.7503 0.2051 0.6284
vn 0.1065 0.8054 0.5831
vn -0.0610 0.9615 -0.2680
vn 0.4794 0.4577 -0.7488
vn 0.9808 -0.0097 -0.1947
vn 0.8394 0.5074 -0.1947
vn 0.9011 0.2463 -0.3568
vn 0.7503 0.2051 -0.6284
vn 0.5685 0.7599 -0.3151
vn 0.4047 0.7092 -0.5773
vn 0.1065 0.8054 -0.5831
vn 0.4011 0.9160 0.0000
vn 0.0979 0.9952 0.0000
vn -0.0610 0.9615 0.2680
vn 0.5685 0.7599 0.3151
vn 0.4047 0.7092 0.5773
vn 0.4794 0.4577 0.7488
vn 0.8394 0.5074 0.1947
vn 0.9011 0.2463 0.3568
vn 0.9808 -0.0097 0.1947
vn 0.8761 -0.3650 -0.3151
vn 0.7092 -0.4047 -0.5773
vn 0.6456 -0.1502 -0.7488
vn 0.2072 0.2585 -0.9435
vn -0.0941 0.3442 -0.9342
vn -0.1657 0.6062 -0.7779
vn -0.4367 0.8588 -0.2680
vn -0.5905 0.8070 0.0000
vn -0.4367 0.8588 0.2680
vn -0.1657 0.6062 0.7779
vn -0.0941 0.3442 0.9342
vn 0.2072 0.2585 0.9435
vn 0.6456 -0.1502 0.7488
vn 0.7092 -0.4047 0.5773
vn 0.8761 -0.3650 0.3151
vn 0.3099 -0.1172 -0.9435
vn 0.0941 -0.3442 -0.9342
vn -0.2072 -0.2585 -0.9435
vn -0.5014 0.6392 -0.5831
vn -0.7092 0.4047 -0.5773
vn -0.8761 0.3650 -0.3151
vn -0.5014 0.6392 0.5831
vn -0.7092 0.4047 0.5773
vn -0.6456 0.1502 0.7488
vn 0.3099 -0.1172 0.9435
vn 0.0941 -0.3442 0.9342
vn 0.1657 -0.6062 0.7779
vn 0.8113 -0.5846 0.0000
vn 0.5905 -0.8070 0.0000
vn 0.4367 -0.8588 -0.2680
vn -0.1065 -0.8054 -0.5831
vn -0.4047 -0.7092 -0.5773
vn -0.4794 -0.4577 -0.7488
vn -0.7503 -0.2051 -0.6284
vn -0.9011 -0.2463 -0.3568
vn -0.9808 0.0097 -0.1947
vn -0.9808 0.0097 0.1947
vn -0.9011 -0.2463 0.3568
vn -0.7503 -0.2051 0.6284
vn 0.0610 -0.9615 -0.2680
vn -0.0979 -0.9952 0.0000
vn -0.4011 -0.9160 0.0000
vn -0.4794 -0.4577 0.7488
vn -0.4047 -0.7092 0.5773
vn -0.1065 -0.8054 0.5831
usemtl None
s off
f 55/106/54 68/107/54 67/108/54
f 56/109/55 68/110/55 70/111/55
f 55/112/56 67/113/56 72/114/56
f 55/115/57 72/116/57 74/117/57
f 55/118/58 74/119/58 71/120/58
f 56/109/59 70/111/59 77/121/59
f 57/122/60 69/123/60 79/124/60
f 58/125/61 73/126/61 81/127/61
f 59/128/62 75/129/62 83/130/62
f 60/131/63 76/132/63 85/133/63
f 56/109/64 77/121/64 80/134/64
f 57/122/65 79/124/65 82/135/65
f 58/125/66 81/127/66 84/136/66
f 59/128/67 83/130/67 86/137/67
f 60/131/68 85/133/68 78/138/68
f 61/139/69 87/140/69 92/141/69
f 62/142/70 88/143/70 94/144/70
f 63/145/71 89/146/71 95/147/71
f 64/148/72 90/149/72 96/150/72
f 65/151/73 91/152/73 93/153/73
f 93/153/74 96/154/74 66/155/74
f 93/153/75 91/152/75 96/154/75
f 91/152/76 64/148/76 96/154/76
f 96/150/77 95/156/77 66/157/77
f 96/150/78 90/149/78 95/156/78
f 90/149/79 63/145/79 95/156/79
f 95/147/80 94/158/80 66/159/80
f 95/147/81 89/146/81 94/158/81
f 89/146/82 62/160/82 94/158/82
f 94/144/83 92/161/83 66/162/83
f 94/144/84 88/143/84 92/161/84
f 88/143/85 61/139/85 92/161/85
f 92/141/86 93/163/86 66/164/86
f 92/141/87 87/140/87 93/163/87
f 87/140/88 65/151/88 93/163/88
f 78/138/89 91/152/89 65/151/89
f 78/138/90 85/133/90 91/152/90
f 85/133/91 64/148/91 91/152/91
f 86/137/92 90/149/92 64/148/92
f 86/137/93 83/130/93 90/149/93
f 83/130/94 63/145/94 90/149/94
f 84/136/95 89/146/95 63/145/95
f 84/136/96 81/127/96 89/146/96
f 81/127/97 62/160/97 89/146/97
f 82/135/98 88/143/98 62/142/98
f 82/135/99 79/124/99 88/143/99
f 79/124/100 61/139/100 88/143/100
f 80/134/101 87/140/101 61/139/101
f 80/134/102 77/121/102 87/140/102
f 77/121/103 65/151/103 87/140/103
f 85/133/104 86/137/104 64/148/104
f 85/133/105 76/132/105 86/137/105
f 76/132/106 59/128/106 86/137/106
f 83/130/107 84/136/107 63/145/107
f 83/130/108 75/129/108 84/136/108
f 75/129/109 58/125/109 84/136/109
f 81/127/110 82/165/110 62/160/110
f 81/127/111 73/126/111 82/165/111
f 73/126/112 57/166/112 82/165/112
f 79/124/113 80/134/113 61/139/113
f 79/124/114 69/123/114 80/134/114
f 69/123/115 56/109/115 80/134/115
f 77/121/116 78/138/116 65/151/116
f 77/121/117 70/111/117 78/138/117
f 70/111/118 60/131/118 78/138/118
f 71/120/119 76/132/119 60/131/119
f 71/120/120 74/119/120 76/132/120
f 74/119/121 59/128/121 76/132/121
f 74/117/122 75/129/122 59/128/122
f 74/117/123 72/116/123 75/129/123
f 72/116/124 58/125/124 75/129/124
f 72/114/125 73/126/125 58/125/125
f 72/114/126 67/113/126 73/126/126
f 67/113/127 57/166/127 73/126/127
f 70/111/128 71/167/128 60/131/128
f 70/111/129 68/110/129 71/167/129
f 68/110/130 55/168/130 71/167/130
f 67/108/131 69/123/131 57/122/131
f 67/108/132 68/107/132 69/123/132
f 68/107/133 56/109/133 69/123/133
